<svg xmlns="http://www.w3.org/2000/svg" viewBox="0 0 240 240" role="img" aria-labelledby="t" data-archetype="bioregion" data-mood="asleep"><title id="t">Bioregion — asleep (listening for a quiet gauge)</title><desc>Eyes closed, a hand cupped to the ear, listening for a quiet gauge. Grey because the reading is stale, not because anything is wrong.</desc><style>.b{fill:var(--kami-accent,#9a958e)}.s{fill:var(--kami-accent-soft,#c9c4bc)}.x{fill:var(--kami-extra,#b8b3ab)}.i{fill:var(--kami-ink,#7f7a73)}.w{fill:#fff}.wr{fill:#fff;stroke:var(--kami-ink,#7f7a73);stroke-width:3}.c{fill:var(--kami-cheek,#cfc4c0)}.l{fill:none;stroke:var(--kami-ink,#7f7a73);stroke-width:5;stroke-linecap:round;stroke-linejoin:round}.q{fill:none;stroke:var(--kami-stale,#9a958e);stroke-width:3;stroke-linecap:round}.g{fill:var(--kami-stale,#9a958e)}.k{fill:var(--kami-spark,#e0a34a)}.hd{fill:var(--kami-accent,#9a958e);stroke:var(--kami-ink,#7f7a73);stroke-width:3}.bb{fill:#fff;stroke:var(--kami-stale,#9a958e);stroke-width:2}.rb{fill:none;stroke:var(--kami-accent,#9a958e);stroke-width:40;stroke-linecap:round}.rs{fill:none;stroke:var(--kami-accent-soft,#c9c4bc);stroke-width:6;stroke-linecap:round;opacity:.9}.v{fill:none;stroke:var(--kami-accent-soft,#c9c4bc);stroke-width:4;stroke-linecap:round}.st{fill:none;stroke:var(--kami-extra,#b8b3ab);stroke-width:6;stroke-linecap:round}.ry{fill:none;stroke:var(--kami-accent,#9a958e);stroke-width:7;stroke-linecap:round}</style><path class="ry" d="M120 22v14M62 46l10 10M178 46l-10 10M36 104h14M204 104h-14"/><circle class="b" cx="120" cy="104" r="58"/><path class="l" d="M90 90q8 8 16 0M134 90q8 8 16 0"/><ellipse class="c" cx="82" cy="104" rx="8" ry="4.5"/><ellipse class="c" cx="158" cy="104" rx="8" ry="4.5"/><path class="l" d="M112 111q8 5 16 0"/><g transform="translate(166 94) rotate(-20)"><ellipse class="hd" rx="10" ry="14"/><circle class="hd" cx="-9" cy="7" r="4.5"/><path class="q" d="M-4 -11v9M1 -12v10M6 -10v8"/></g><path class="q" d="M184 80a16 16 0 0 1 0 28M194 72a24 24 0 0 1 0 44"/><g transform="translate(154 20)"><rect class="bb" x="0" y="0" width="46" height="26" rx="13"/><path class="bb" d="M10 24l-4 10 12 -8z"/><circle class="g" cx="13" cy="13" r="3"/><circle class="g" cx="23" cy="13" r="3"/><circle class="g" cx="33" cy="13" r="3"/></g><path class="x" d="M0 178C30 142 62 134 92 156C122 124 162 118 200 156C220 146 232 154 240 166V216H0Z"/><path class="s" d="M0 204C40 180 80 176 120 196C160 174 200 178 240 200V228H0Z"/></svg>
