<svg xmlns="http://www.w3.org/2000/svg" viewBox="0 0 240 240" role="img" aria-labelledby="t" data-archetype="creek" data-mood="concerned"><title id="t">Creek — concerned</title><desc>A friendly creek character, concerned.</desc><style>.b{fill:var(--kami-accent,#2f6f8f)}.s{fill:var(--kami-accent-soft,#8fc3d9)}.x{fill:var(--kami-extra,#f2f7f9)}.i{fill:var(--kami-ink,#26221d)}.w{fill:#fff}.wr{fill:#fff;stroke:var(--kami-ink,#26221d);stroke-width:3}.c{fill:var(--kami-cheek,#e9a3a0)}.l{fill:none;stroke:var(--kami-ink,#26221d);stroke-width:5;stroke-linecap:round;stroke-linejoin:round}.q{fill:none;stroke:var(--kami-stale,#9a958e);stroke-width:3;stroke-linecap:round}.g{fill:var(--kami-stale,#9a958e)}.k{fill:var(--kami-spark,#e0a34a)}.hd{fill:var(--kami-accent,#2f6f8f);stroke:var(--kami-ink,#26221d);stroke-width:3}.bb{fill:#fff;stroke:var(--kami-stale,#9a958e);stroke-width:2}.rb{fill:none;stroke:var(--kami-accent,#2f6f8f);stroke-width:40;stroke-linecap:round}.rs{fill:none;stroke:var(--kami-accent-soft,#8fc3d9);stroke-width:6;stroke-linecap:round;opacity:.9}.v{fill:none;stroke:var(--kami-accent-soft,#8fc3d9);stroke-width:4;stroke-linecap:round}.st{fill:none;stroke:var(--kami-extra,#f2f7f9);stroke-width:6;stroke-linecap:round}.ry{fill:none;stroke:var(--kami-accent,#2f6f8f);stroke-width:7;stroke-linecap:round}</style><path class="rb" d="M18 44C56 40 76 66 100 92"/><path class="rb" d="M140 146C166 170 186 198 224 196"/><circle class="b" cx="120" cy="116" r="60"/><path class="rs" d="M28 46c14 0 24 8 34 18M154 158c12 12 26 26 42 30"/><path class="rs" d="M80 84q10 -16 30 -22"/><path class="x" d="M72 70a16 16 0 0 1 32 0a16 16 0 0 1 32 0a16 16 0 0 1 32 0z"/><circle class="x" cx="66" cy="78" r="3.5"/><circle class="x" cx="175" cy="77" r="3"/><circle class="i" cx="98" cy="116" r="6"/><circle class="i" cx="142" cy="116" r="6"/><circle class="w" cx="100" cy="114" r="2.2"/><circle class="w" cx="144" cy="114" r="2.2"/><ellipse class="c" cx="82" cy="130" rx="8" ry="4.5"/><ellipse class="c" cx="158" cy="130" rx="8" ry="4.5"/><path class="l" d="M86 102l18 -6M136 96l18 6"/><path class="l" d="M109 141q11 -8 22 0"/></svg>
