<svg xmlns="http://www.w3.org/2000/svg" viewBox="0 0 240 240" role="img" aria-labelledby="t" data-archetype="mountain" data-mood="content"><title id="t">Mountain — content</title><desc>A friendly mountain character, content.</desc><style>.b{fill:var(--kami-accent,#6f7d8c)}.s{fill:var(--kami-accent-soft,#5e8a5a)}.x{fill:var(--kami-extra,#f7f5f1)}.i{fill:var(--kami-ink,#26221d)}.w{fill:#fff}.wr{fill:#fff;stroke:var(--kami-ink,#26221d);stroke-width:3}.c{fill:var(--kami-cheek,#e9a3a0)}.l{fill:none;stroke:var(--kami-ink,#26221d);stroke-width:5;stroke-linecap:round;stroke-linejoin:round}.q{fill:none;stroke:var(--kami-stale,#9a958e);stroke-width:3;stroke-linecap:round}.g{fill:var(--kami-stale,#9a958e)}.k{fill:var(--kami-spark,#e0a34a)}.hd{fill:var(--kami-accent,#6f7d8c);stroke:var(--kami-ink,#26221d);stroke-width:3}.bb{fill:#fff;stroke:var(--kami-stale,#9a958e);stroke-width:2}.rb{fill:none;stroke:var(--kami-accent,#6f7d8c);stroke-width:40;stroke-linecap:round}.rs{fill:none;stroke:var(--kami-accent-soft,#5e8a5a);stroke-width:6;stroke-linecap:round;opacity:.9}.v{fill:none;stroke:var(--kami-accent-soft,#5e8a5a);stroke-width:4;stroke-linecap:round}.st{fill:none;stroke:var(--kami-extra,#f7f5f1);stroke-width:6;stroke-linecap:round}.ry{fill:none;stroke:var(--kami-accent,#6f7d8c);stroke-width:7;stroke-linecap:round}</style><path class="s" d="M46 200l10 -24 10 24zM172 200l10 -24 10 24z"/><path class="b" d="M120 36C128 36 134 46 140 58L206 176C214 190 208 200 192 200H48C32 200 26 190 34 176L100 58C106 46 112 36 120 36Z"/><path class="x" d="M120 36C128 36 134 46 140 58L159 92Q150 80 142 96Q132 84 122 100Q112 84 100 96Q92 82 81 92L100 58C106 46 112 36 120 36Z"/><circle class="i" cx="98" cy="136" r="6.5"/><circle class="i" cx="142" cy="136" r="6.5"/><circle class="w" cx="100" cy="134" r="2.2"/><circle class="w" cx="144" cy="134" r="2.2"/><ellipse class="c" cx="82" cy="150" rx="9" ry="5.5"/><ellipse class="c" cx="158" cy="150" rx="9" ry="5.5"/><path class="l" d="M106 154q14 13 28 0"/></svg>
