<svg xmlns="http://www.w3.org/2000/svg" viewBox="0 0 240 240" role="img" aria-labelledby="t" data-archetype="reservoir" data-mood="content"><title id="t">Reservoir — content</title><desc>A friendly reservoir character, content.</desc><style>.b{fill:var(--kami-accent,#3b7ea1)}.s{fill:var(--kami-accent-soft,#8fc3d9)}.x{fill:var(--kami-extra,#a39a8c)}.i{fill:var(--kami-ink,#26221d)}.w{fill:#fff}.wr{fill:#fff;stroke:var(--kami-ink,#26221d);stroke-width:3}.c{fill:var(--kami-cheek,#e9a3a0)}.l{fill:none;stroke:var(--kami-ink,#26221d);stroke-width:5;stroke-linecap:round;stroke-linejoin:round}.q{fill:none;stroke:var(--kami-stale,#9a958e);stroke-width:3;stroke-linecap:round}.g{fill:var(--kami-stale,#9a958e)}.k{fill:var(--kami-spark,#e0a34a)}.hd{fill:var(--kami-accent,#3b7ea1);stroke:var(--kami-ink,#26221d);stroke-width:3}.bb{fill:#fff;stroke:var(--kami-stale,#9a958e);stroke-width:2}.rb{fill:none;stroke:var(--kami-accent,#3b7ea1);stroke-width:40;stroke-linecap:round}.rs{fill:none;stroke:var(--kami-accent-soft,#8fc3d9);stroke-width:6;stroke-linecap:round;opacity:.9}.v{fill:none;stroke:var(--kami-accent-soft,#8fc3d9);stroke-width:4;stroke-linecap:round}.st{fill:none;stroke:var(--kami-extra,#a39a8c);stroke-width:6;stroke-linecap:round}.ry{fill:none;stroke:var(--kami-accent,#3b7ea1);stroke-width:7;stroke-linecap:round}</style><circle class="b" cx="120" cy="104" r="72"/><path class="rs" d="M72 66q14 -12 30 -8M62 88q10 -10 22 -8"/><path class="s" d="M110 190q4 18 -4 30h28q-8 -12 -4 -30z"/><rect class="x" x="24" y="160" width="192" height="34" rx="14"/><rect class="s" x="104" y="160" width="32" height="7" rx="3"/><circle class="i" cx="98" cy="98" r="6.5"/><circle class="i" cx="142" cy="98" r="6.5"/><circle class="w" cx="100" cy="96" r="2.2"/><circle class="w" cx="144" cy="96" r="2.2"/><ellipse class="c" cx="82" cy="112" rx="9" ry="5.5"/><ellipse class="c" cx="158" cy="112" rx="9" ry="5.5"/><path class="l" d="M106 116q14 13 28 0"/></svg>
